<svg xmlns="http://www.w3.org/2000/svg" width="16" height="16"><rect width="16" height="16" fill="none"/><line x1="12.5" y1="10" y2="9.75" x2="12.5" stroke="#f34359" stroke-linecap="round" stroke-width="2" transform="matrix(.75 0 0 .75 2 2)"/><line x1="10.5" y1="10.5" y2="8.75" x2="10.5" stroke="#f34359" stroke-linecap="round" stroke-width="2" transform="matrix(.75 0 0 .75 2 2)"/><line x1="8.5" y1="10.75" y2="8" x2="8.5" stroke="#f34359" stroke-linecap="round" stroke-width="2" transform="matrix(.75 0 0 .75 2 2)"/><line x1="7.25" y1="14.75" y2="9.5" x2="3.75" stroke="#f34359" stroke-linecap="round" stroke-width="2" transform="matrix(.75 0 0 .75 2 2)"/><line x1="6.5" y1="12.5" y2="4" x2="6.5" stroke="#f34359" stroke-linecap="round" stroke-width="2" transform="matrix(.75 0 0 .75 2 2)"/><line x1="10" y1="4.5" y2="4.5" x2="8.5" stroke="#f34359" stroke-linecap="round" stroke-width="1" transform="matrix(.75 0 0 .75 2 2)"/><line x1="9.5" y1="1.5" y2="2.5" x2="8.5" stroke="#f34359" stroke-linecap="round" stroke-width="1" transform="matrix(.75 0 0 .75 2 2)"/><line x1="3.5" y1="1.5" y2="2.5" x2="4.5" stroke="#f34359" stroke-linecap="round" stroke-width="1" transform="matrix(.75 0 0 .75 2 2)"/><line x1="3" y1="4.5" y2="4.5" x2="4.5" stroke="#f34359" stroke-linecap="round" stroke-width="1" transform="matrix(.75 0 0 .75 2 2)"/><line x1="6.5" y1=".5" y2="2" x2="6.5" stroke="#f34359" stroke-linecap="round" stroke-width="1" transform="matrix(.75 0 0 .75 2 2)"/><path d="M5.5 12Q6.25 15.25 7.25 16L10.75 16Q12 16 13.5 13L13.5 10 5.5 10Z" fill="#f34359" transform="matrix(.75 0 0 .75 2 2)"/><rect width="2" height="2" x="13" y="11" fill="#f34359"/><rect width="2" height="2" x="13" y="3" fill="#f34359"/><rect width="2" height="2" x="1" y="11" fill="#f34359"/><rect width="2" height="2" x="1" y="3" fill="#f34359"/><rect width="4" height="2" x="11" y="13" fill="#f34359"/><rect width="4" height="2" x="11" y="1" fill="#f34359"/><rect width="4" height="2" x="1" y="13" fill="#f34359"/><rect width="4" height="2" x="1" y="1" fill="#f34359"/></svg>